<?xml version="1.0" encoding="UTF-8"?><svg id="_레이어_2" xmlns="http://www.w3.org/2000/svg" viewBox="0 0 370.91 75.84"><defs><style>.cls-1{fill:#0f366a;}.cls-1,.cls-2,.cls-3,.cls-4{stroke-width:0px;}.cls-2{fill:#3e3a39;}.cls-3{fill:#898989;}.cls-4{fill:#ff8500;}</style></defs><g id="_레이어_1-2"><g id="PHAROS_logo"><g id="PHAROS"><path class="cls-2" d="M72.47,71.75V26.88c0-2.22.72-3.01,3.01-3.01h19.78c11.18,0,18.49,6.52,18.49,17.92s-7.24,17.7-18.35,17.7h-8.82v12.26c0,2.22-.72,3.01-3.01,3.01h-8.1c-2.29,0-3.01-.79-3.01-3.01ZM99.07,41.65c0-3.15-1.94-5.3-5.38-5.3h-7.09v10.61h7.09c3.37,0,5.38-2.08,5.38-5.3Z"/><path class="cls-1" d="M171.31,71.83l16.48-45.44c.72-2.08,1.72-2.51,3.73-2.51h8.17c2.01,0,3.01.5,3.73,2.37l16.56,45.59c.72,1.94.07,2.94-2.08,2.94h-7.74c-3.65,0-4.8-.79-5.37-3.01l-1.58-8.28h-15.63l-1.65,8.28c-.65,2.22-1.65,3.01-5.16,3.01h-7.53c-2.22,0-2.65-1-1.93-2.94ZM195.68,36.85h-.72l-4.02,15.38h8.96l-4.23-15.38Z"/><path class="cls-2" d="M122,71.75V26.88c0-2.22.72-3.01,3.01-3.01h8.1c2.29,0,3.01.79,3.01,3.01v15.84h13.91v-15.84c0-2.22.79-3.01,3.08-3.01h9.06c1.13,0,2.05.92,2.05,2.05v46.79c0,1.13-.92,2.05-2.05,2.05h-9.06c-2.29,0-3.08-.79-3.08-3.01v-16.56h-13.91v16.56c0,2.22-.72,3.01-3.01,3.01h-8.1c-2.29,0-3.01-.79-3.01-3.01Z"/><path class="cls-2" d="M227.07,71.75V26.88c0-2.22.72-3.01,3.01-3.01h20.43c10.82,0,17.85,6.16,17.85,17.27,0,6.95-2.87,12.04-7.74,14.77.72.93,1.36,1.94,1.94,3.08l6.45,12.26c1,1.94.5,3.51-1.86,3.51h-7.74c-3.8,0-5.38-.93-6.59-3.44l-4.59-9.82c-1.22-2.44-2.44-3.66-5.38-3.66h-1.65v13.91c0,2.22-.72,3.01-3.01,3.01h-8.1c-2.29,0-3.01-.79-3.01-3.01ZM253.66,41.07c0-2.94-1.65-4.73-4.73-4.73h-7.74v9.53h7.74c3.01,0,4.73-1.86,4.73-4.8Z"/><path class="cls-2" d="M276.37,55.84v-13.05c0-12.33,7.81-20,22.01-20s22,7.67,22,20v13.05c0,12.33-7.88,20-22,20s-22.01-7.67-22.01-20ZM306.19,56.41v-14.19c0-4.52-2.87-6.88-7.81-6.88s-7.88,2.37-7.88,6.88v14.19c0,4.52,2.87,6.88,7.88,6.88s7.81-2.37,7.81-6.88Z"/><path class="cls-2" d="M327.83,64.73c-.72-2.15-.14-3.15,1.94-3.94l6.74-2.44c2.15-.72,3.08-.5,4.23,1.58,1.29,2.51,4.09,3.8,8.1,3.8,4.8,0,7.74-1,7.74-4.09,0-2.87-3.73-3.58-8.46-4.23-8.39-1.22-20.14-2.65-20.14-16.56,0-9.46,7.6-16.06,21.29-16.06,10.61,0,16.63,3.15,20,10.04,1,2.08.43,3.15-1.72,4.01l-7.1,3.08c-2.01.86-2.8.57-3.87-1.51-1.43-2.72-4.01-3.73-7.31-3.73-4.87,0-6.81,1.22-6.81,3.73,0,3.08,4.23,3.73,9.39,4.37,8.32,1.15,19.07,3.15,19.07,16.7,0,10.54-9.53,16.34-22.22,16.34-10.68,0-18.14-3.66-20.86-11.11Z"/></g><g id="All-In-One"><path class="cls-3" d="M83.28,11.48h-1.17c-.13,0-.24-.03-.33-.1-.08-.07-.14-.15-.19-.26l-1.04-2.69h-5.01l-1.04,2.69c-.04.09-.1.18-.19.25-.09.07-.2.11-.33.11h-1.17L77.29.31h1.54l4.46,11.16ZM75.97,7.33h4.17l-1.75-4.54c-.11-.28-.23-.63-.33-1.05-.06.21-.11.41-.17.59-.05.18-.11.34-.16.47l-1.75,4.53Z"/><path class="cls-3" d="M86.8,0v11.48h-1.39V0h1.39Z"/><path class="cls-3" d="M91.57,0v11.48h-1.39V0h1.39Z"/><path class="cls-3" d="M94.43,6.22h3.85v1.18h-3.85v-1.18Z"/><path class="cls-3" d="M102.83,1.11c0,.14-.03.26-.08.38-.05.12-.13.22-.22.31-.09.09-.2.16-.31.21-.12.05-.25.08-.38.08s-.26-.03-.38-.08c-.12-.05-.22-.12-.31-.21-.09-.09-.16-.19-.21-.31-.05-.12-.08-.24-.08-.38s.03-.26.08-.38.12-.23.21-.32c.09-.09.19-.16.31-.21.12-.05.24-.08.38-.08s.26.03.38.08c.12.05.22.12.31.21s.16.2.22.32.08.25.08.38ZM102.52,3.58v7.89h-1.39V3.58h1.39Z"/><path class="cls-3" d="M105.74,11.48V3.58h.82c.2,0,.32.1.37.29l.11.86c.34-.38.73-.68,1.15-.92s.91-.35,1.47-.35c.43,0,.81.07,1.14.21s.61.35.83.61c.22.26.39.58.5.95.11.37.17.78.17,1.22v5.02h-1.39v-5.02c0-.6-.14-1.06-.41-1.39-.27-.33-.69-.49-1.25-.49-.41,0-.79.1-1.15.3-.36.2-.68.47-.99.8v5.81h-1.39Z"/><path class="cls-3" d="M114.83,6.22h3.85v1.18h-3.85v-1.18Z"/><path class="cls-3" d="M131.96,5.9c0,.84-.13,1.6-.4,2.3-.26.7-.64,1.3-1.12,1.8-.48.5-1.06.89-1.74,1.17-.68.28-1.43.42-2.25.42s-1.57-.14-2.24-.42-1.25-.67-1.74-1.17c-.48-.5-.86-1.1-1.12-1.8s-.4-1.47-.4-2.3.13-1.6.4-2.3.64-1.3,1.12-1.81c.48-.51,1.06-.9,1.74-1.18.68-.28,1.42-.42,2.24-.42s1.57.14,2.25.42c.68.28,1.26.67,1.74,1.18.48.51.86,1.11,1.12,1.81.27.7.4,1.47.4,2.3ZM130.41,5.9c0-.68-.09-1.3-.28-1.85-.19-.55-.45-1.01-.79-1.38-.34-.38-.76-.67-1.25-.87s-1.03-.3-1.64-.3-1.14.1-1.63.3c-.49.2-.91.49-1.25.87-.35.38-.61.84-.8,1.38-.19.54-.28,1.16-.28,1.85s.09,1.3.28,1.84.45,1,.8,1.38c.35.38.76.66,1.25.87.49.2,1.03.3,1.63.3s1.15-.1,1.64-.3c.49-.2.9-.49,1.25-.87.34-.38.61-.84.79-1.38.19-.54.28-1.16.28-1.84Z"/><path class="cls-3" d="M134.58,11.48V3.58h.82c.2,0,.32.1.37.29l.11.86c.34-.38.73-.68,1.15-.92s.91-.35,1.47-.35c.43,0,.81.07,1.14.21s.61.35.83.61c.22.26.39.58.5.95.11.37.17.78.17,1.22v5.02h-1.39v-5.02c0-.6-.14-1.06-.41-1.39-.27-.33-.69-.49-1.25-.49-.41,0-.79.1-1.15.3-.36.2-.68.47-.99.8v5.81h-1.39Z"/><path class="cls-3" d="M147.15,3.46c.47,0,.91.08,1.31.24s.75.39,1.04.68c.29.3.52.67.68,1.11.16.44.24.94.24,1.5,0,.22-.02.36-.07.44-.05.07-.14.11-.26.11h-5.25c.01.5.08.93.2,1.3.12.37.3.68.51.92s.48.43.78.55c.3.12.64.18,1.01.18.35,0,.65-.04.9-.12.25-.08.47-.17.65-.26.18-.09.33-.18.45-.26.12-.08.23-.12.31-.12.11,0,.2.04.26.13l.39.51c-.17.21-.38.39-.61.54s-.49.28-.77.38c-.27.1-.56.17-.85.22s-.58.07-.86.07c-.55,0-1.05-.09-1.51-.28s-.86-.45-1.19-.81c-.33-.35-.6-.8-.78-1.32-.19-.52-.28-1.13-.28-1.81,0-.55.08-1.07.25-1.54s.41-.89.73-1.24c.32-.35.7-.63,1.16-.82.46-.2.97-.3,1.54-.3ZM147.18,4.48c-.67,0-1.2.19-1.58.58-.38.39-.62.92-.72,1.61h4.29c0-.32-.04-.62-.13-.88s-.22-.5-.39-.69c-.17-.19-.38-.35-.63-.45-.25-.11-.53-.16-.85-.16Z"/><path class="cls-3" d="M156.97,11.48V.31h3.56c.68,0,1.28.07,1.77.2.49.14.9.33,1.22.58s.56.55.71.92c.15.36.23.77.23,1.22,0,.28-.04.54-.13.79s-.22.49-.39.71c-.17.22-.39.41-.65.58-.26.17-.57.31-.92.42.82.16,1.43.45,1.85.88.42.43.62.99.62,1.68,0,.47-.09.9-.26,1.29-.17.39-.43.72-.76,1-.33.28-.75.5-1.23.65s-1.04.23-1.66.23h-3.95ZM158.48,5.31h1.99c.43,0,.79-.05,1.11-.14.31-.09.57-.22.77-.39s.36-.37.46-.6.15-.49.15-.77c0-.65-.2-1.14-.59-1.44-.39-.31-1.01-.46-1.84-.46h-2.05v3.81ZM158.48,6.39v3.89h2.41c.43,0,.8-.05,1.11-.15s.56-.24.76-.42c.2-.18.35-.39.44-.64.09-.25.14-.52.14-.81,0-.58-.2-1.03-.61-1.37s-1.02-.5-1.85-.5h-2.41Z"/><path class="cls-3" d="M168.81,3.58v5.03c0,.6.14,1.06.41,1.39s.69.49,1.25.49c.4,0,.79-.1,1.14-.29.36-.19.69-.46.99-.8V3.58h1.39v7.89h-.83c-.2,0-.32-.1-.37-.29l-.11-.85c-.34.38-.73.68-1.15.92s-.91.35-1.47.35c-.43,0-.81-.07-1.14-.21s-.61-.34-.83-.6c-.22-.26-.39-.57-.5-.94-.11-.37-.17-.78-.17-1.22V3.58h1.39Z"/><path class="cls-3" d="M181.57,4.88c-.06.12-.16.17-.29.17-.08,0-.17-.03-.26-.09-.1-.06-.22-.12-.36-.19-.14-.07-.31-.13-.51-.19-.2-.06-.43-.09-.7-.09-.23,0-.44.03-.63.09-.19.06-.35.14-.48.25-.13.1-.23.22-.3.36-.07.14-.1.29-.1.45,0,.2.06.37.17.51s.27.25.46.35c.19.1.41.19.65.26.24.07.49.16.75.24.26.09.51.18.75.28.24.1.46.23.65.39.19.16.35.35.46.57.12.23.17.5.17.81,0,.36-.07.7-.19,1.01s-.32.58-.58.8c-.25.23-.57.4-.93.53-.37.13-.8.19-1.28.19-.55,0-1.05-.09-1.5-.27-.45-.18-.83-.41-1.14-.69l.33-.53c.04-.07.09-.12.15-.16.06-.04.13-.05.23-.05s.19.04.3.11c.1.07.23.15.38.24s.33.17.54.24c.21.07.47.11.79.11.27,0,.51-.03.71-.11.2-.07.37-.16.51-.28.14-.12.23-.26.3-.41.07-.16.1-.32.1-.5,0-.22-.06-.4-.17-.54s-.27-.26-.46-.37-.41-.19-.66-.26c-.25-.07-.5-.16-.75-.24-.26-.08-.51-.18-.76-.28s-.47-.24-.66-.4c-.19-.16-.35-.36-.46-.59-.12-.24-.17-.52-.17-.86,0-.3.06-.59.19-.87.12-.28.31-.52.54-.73.24-.21.53-.38.88-.5.35-.12.74-.19,1.19-.19.52,0,.99.08,1.4.24.41.16.77.39,1.07.67l-.31.51Z"/><path class="cls-3" d="M186.45,1.11c0,.14-.03.26-.08.38-.05.12-.13.22-.22.31-.09.09-.2.16-.31.21-.12.05-.25.08-.38.08s-.26-.03-.38-.08c-.12-.05-.22-.12-.31-.21-.09-.09-.16-.19-.21-.31-.05-.12-.08-.24-.08-.38s.03-.26.08-.38.12-.23.21-.32c.09-.09.19-.16.31-.21.12-.05.24-.08.38-.08s.26.03.38.08c.12.05.22.12.31.21s.16.2.22.32.08.25.08.38ZM186.14,3.58v7.89h-1.39V3.58h1.39Z"/><path class="cls-3" d="M189.36,11.48V3.58h.82c.2,0,.32.1.37.29l.11.86c.34-.38.73-.68,1.15-.92s.91-.35,1.47-.35c.43,0,.81.07,1.14.21s.61.35.83.61c.22.26.39.58.5.95.11.37.17.78.17,1.22v5.02h-1.39v-5.02c0-.6-.14-1.06-.41-1.39-.27-.33-.69-.49-1.25-.49-.41,0-.79.1-1.15.3-.36.2-.68.47-.99.8v5.81h-1.39Z"/><path class="cls-3" d="M201.93,3.46c.47,0,.91.08,1.31.24s.75.39,1.04.68c.29.3.52.67.68,1.11.16.44.24.94.24,1.5,0,.22-.02.36-.07.44-.05.07-.14.11-.26.11h-5.25c.01.5.08.93.2,1.3.12.37.3.68.51.92s.48.43.78.55c.3.12.64.18,1.01.18.35,0,.65-.04.9-.12.25-.08.47-.17.65-.26.18-.09.33-.18.45-.26.12-.08.23-.12.31-.12.11,0,.2.04.26.13l.39.51c-.17.21-.38.39-.61.54s-.49.28-.77.38c-.27.1-.56.17-.85.22s-.58.07-.86.07c-.55,0-1.05-.09-1.51-.28s-.86-.45-1.19-.81c-.33-.35-.6-.8-.78-1.32-.19-.52-.28-1.13-.28-1.81,0-.55.08-1.07.25-1.54s.41-.89.73-1.24c.32-.35.7-.63,1.16-.82.46-.2.97-.3,1.54-.3ZM201.96,4.48c-.67,0-1.2.19-1.58.58-.38.39-.62.92-.72,1.61h4.29c0-.32-.04-.62-.13-.88s-.22-.5-.39-.69c-.17-.19-.38-.35-.63-.45-.25-.11-.53-.16-.85-.16Z"/><path class="cls-3" d="M212.27,4.88c-.06.12-.16.17-.29.17-.08,0-.17-.03-.26-.09-.1-.06-.22-.12-.36-.19-.14-.07-.31-.13-.51-.19-.2-.06-.43-.09-.7-.09-.23,0-.44.03-.63.09-.19.06-.35.14-.48.25-.13.1-.23.22-.3.36-.07.14-.1.29-.1.45,0,.2.06.37.17.51s.27.25.46.35c.19.1.41.19.65.26.24.07.49.16.75.24.26.09.51.18.75.28.24.1.46.23.65.39.19.16.35.35.46.57.12.23.17.5.17.81,0,.36-.07.7-.19,1.01s-.32.58-.58.8c-.25.23-.57.4-.93.53-.37.13-.8.19-1.28.19-.55,0-1.05-.09-1.5-.27-.45-.18-.83-.41-1.14-.69l.33-.53c.04-.07.09-.12.15-.16.06-.04.13-.05.23-.05s.19.04.3.11c.1.07.23.15.38.24s.33.17.54.24c.21.07.47.11.79.11.27,0,.51-.03.71-.11.2-.07.37-.16.51-.28.14-.12.23-.26.3-.41.07-.16.1-.32.1-.5,0-.22-.06-.4-.17-.54s-.27-.26-.46-.37-.41-.19-.66-.26c-.25-.07-.5-.16-.75-.24-.26-.08-.51-.18-.76-.28s-.47-.24-.66-.4c-.19-.16-.35-.36-.46-.59-.12-.24-.17-.52-.17-.86,0-.3.06-.59.19-.87.12-.28.31-.52.54-.73.24-.21.53-.38.88-.5.35-.12.74-.19,1.19-.19.52,0,.99.08,1.4.24.41.16.77.39,1.07.67l-.31.51Z"/><path class="cls-3" d="M219.81,4.88c-.06.12-.16.17-.29.17-.08,0-.17-.03-.26-.09-.1-.06-.22-.12-.36-.19-.14-.07-.31-.13-.51-.19-.2-.06-.43-.09-.7-.09-.23,0-.44.03-.63.09-.19.06-.35.14-.48.25-.13.1-.23.22-.3.36-.07.14-.1.29-.1.45,0,.2.06.37.17.51s.27.25.46.35c.19.1.41.19.65.26.24.07.49.16.75.24.26.09.51.18.75.28.24.1.46.23.65.39.19.16.35.35.46.57.12.23.17.5.17.81,0,.36-.07.7-.19,1.01s-.32.58-.58.8c-.25.23-.57.4-.93.53-.37.13-.8.19-1.28.19-.55,0-1.05-.09-1.5-.27-.45-.18-.83-.41-1.14-.69l.33-.53c.04-.07.09-.12.15-.16.06-.04.13-.05.23-.05s.19.04.3.11c.1.07.23.15.38.24s.33.17.54.24c.21.07.47.11.79.11.27,0,.51-.03.71-.11.2-.07.37-.16.51-.28.14-.12.23-.26.3-.41.07-.16.1-.32.1-.5,0-.22-.06-.4-.17-.54s-.27-.26-.46-.37-.41-.19-.66-.26c-.25-.07-.5-.16-.75-.24-.26-.08-.51-.18-.76-.28s-.47-.24-.66-.4c-.19-.16-.35-.36-.46-.59-.12-.24-.17-.52-.17-.86,0-.3.06-.59.19-.87.12-.28.31-.52.54-.73.24-.21.53-.38.88-.5.35-.12.74-.19,1.19-.19.52,0,.99.08,1.4.24.41.16.77.39,1.07.67l-.31.51Z"/><path class="cls-3" d="M221.8.31h1.25c.14,0,.25.03.33.1.09.07.15.15.18.26l2.31,7.76c.04.14.08.29.11.45.03.16.07.33.1.51.04-.18.07-.35.11-.51.04-.16.08-.31.12-.45l2.63-7.76c.03-.09.09-.17.18-.25.09-.07.2-.11.33-.11h.44c.14,0,.25.03.33.1.09.07.15.15.18.26l2.61,7.76c.09.27.18.58.25.93.03-.17.06-.33.09-.49.03-.16.06-.3.1-.44l2.31-7.76c.03-.09.08-.18.17-.25s.2-.11.33-.11h1.18l-3.48,11.16h-1.36l-2.83-8.51c-.06-.16-.11-.35-.16-.56-.03.1-.05.2-.07.3-.02.1-.05.18-.07.26l-2.84,8.51h-1.36l-3.48-11.16Z"/><path class="cls-3" d="M244.6,11.48h-.62c-.13,0-.24-.02-.33-.06-.08-.04-.14-.13-.16-.26l-.16-.73c-.21.19-.41.35-.61.5s-.4.27-.62.37c-.22.1-.45.18-.7.23s-.52.08-.82.08-.59-.04-.86-.13c-.27-.09-.5-.21-.7-.39s-.35-.39-.47-.65-.17-.58-.17-.93c0-.31.09-.61.26-.9.17-.29.45-.55.83-.77.38-.22.88-.41,1.5-.55s1.37-.21,2.27-.21v-.62c0-.62-.13-1.08-.39-1.4-.26-.32-.65-.47-1.16-.47-.34,0-.62.04-.85.13s-.43.18-.6.29c-.17.11-.31.2-.44.29s-.24.13-.36.13c-.09,0-.17-.02-.24-.07-.07-.05-.13-.11-.17-.18l-.25-.44c.44-.42.91-.73,1.41-.94.5-.21,1.06-.31,1.67-.31.44,0,.83.07,1.18.22.34.14.63.35.86.61.23.26.41.57.53.94.12.37.18.77.18,1.21v5.05ZM241,10.63c.24,0,.47-.02.67-.07.2-.05.39-.12.57-.21s.35-.2.51-.33c.16-.13.32-.28.48-.44v-1.63c-.64,0-1.18.04-1.63.12-.45.08-.81.19-1.09.32s-.48.28-.61.46-.19.38-.19.59.03.39.1.54c.07.15.16.28.27.37.11.1.25.17.41.21.16.04.32.07.51.07Z"/><path class="cls-3" d="M247.48,11.48V3.58h.79c.15,0,.25.03.31.09s.1.16.12.3l.09,1.23c.27-.55.6-.98,1-1.29s.86-.46,1.4-.46c.22,0,.42.03.59.07s.34.12.49.21l-.18,1.04c-.04.13-.12.19-.24.19-.07,0-.18-.03-.33-.07s-.36-.07-.63-.07c-.48,0-.89.14-1.21.42-.32.28-.6.69-.81,1.22v5.02h-1.39Z"/><path class="cls-3" d="M257.66,3.46c.47,0,.91.08,1.31.24s.75.39,1.04.68c.29.3.52.67.68,1.11.16.44.24.94.24,1.5,0,.22-.02.36-.07.44-.05.07-.14.11-.26.11h-5.25c.01.5.08.93.2,1.3.12.37.3.68.51.92s.48.43.78.55c.3.12.64.18,1.01.18.35,0,.65-.04.9-.12.25-.08.47-.17.65-.26.18-.09.33-.18.45-.26.12-.08.23-.12.31-.12.11,0,.2.04.26.13l.39.51c-.17.21-.38.39-.61.54s-.49.28-.77.38c-.27.1-.56.17-.85.22s-.58.07-.86.07c-.55,0-1.05-.09-1.51-.28s-.86-.45-1.19-.81c-.33-.35-.6-.8-.78-1.32-.19-.52-.28-1.13-.28-1.81,0-.55.08-1.07.25-1.54s.41-.89.73-1.24c.32-.35.7-.63,1.16-.82.46-.2.97-.3,1.54-.3ZM257.69,4.48c-.67,0-1.2.19-1.58.58-.38.39-.62.92-.72,1.61h4.29c0-.32-.04-.62-.13-.88s-.22-.5-.39-.69c-.17-.19-.38-.35-.63-.45-.25-.11-.53-.16-.85-.16Z"/></g><g id="_등대"><path class="cls-1" d="M19.38,10.45h-6.8V3.11c0-1.11.82-2.02,1.83-2.02h3.14c1.01,0,1.83.9,1.83,2.02v7.34Z"/><path class="cls-1" d="M28.07,45.65l-23.73,7.07c-1.37.41-2.72-.7-2.58-2.13l1.56-15.82c.1-1.03.97-1.82,2-1.82h21.29c1.04,0,1.9.78,2,1.81l.87,8.75c.1.96-.5,1.85-1.43,2.13Z"/><path class="cls-1" d="M28.72,20.59v3.36c0,1.17-.94,2.11-2.11,2.11H5.32c-1.17,0-2.11-.94-2.11-2.11v-3.36c0-5.79,3.86-10.68,9.13-12.23,1.15-.35,2.37-.53,3.63-.53s2.5.18,3.64.53c5.27,1.57,9.11,6.43,9.11,12.23Z"/><path class="cls-1" d="M30.37,74.85H2.32c-1.37,0-2.45-1.19-2.31-2.55l.1-1,.93-9.5c.04-.43.34-.78.75-.91l26.22-7.81c1.4-.42,2.83.54,2.97,2l1.61,16.22.1,1c.14,1.37-.94,2.55-2.31,2.55Z"/><circle class="cls-4" cx="40.41" cy="8.91" r="7.12"/></g></g></g></svg>