<svg width="24" height="24" viewBox="0 0 24 24" fill="none" xmlns="http://www.w3.org/2000/svg">
<path d="M17.534 3.36L16.309 2H6.662C5.966 2 5.697 2.516 5.697 2.919V6.549H7.05V3.653C7.05 3.499 7.18 3.369 7.33 3.369H14.233C14.385 3.369 14.461 3.396 14.461 3.521V8.341H19.374C19.567 8.341 19.642 8.441 19.642 8.587V20.357C19.642 20.603 19.542 20.64 19.392 20.64H7.33C7.25562 20.6382 7.18485 20.6076 7.13261 20.5546C7.08037 20.5016 7.05076 20.4304 7.05 20.356V19.28H5.706V20.975C5.688 21.575 6.008 22 6.662 22H20.06C20.76 22 20.999 21.493 20.999 21.031V7.187L20.649 6.807L17.533 3.361L17.534 3.36ZM15.836 3.52L16.223 3.954L18.819 6.807L18.962 6.98H16.309C16.109 6.98 15.982 6.947 15.929 6.88C15.876 6.815 15.845 6.71 15.836 6.567V3.52ZM14.746 12.667H19.323V14.001H14.745V12.667H14.746ZM14.746 10.001H19.323V11.334H14.745V10L14.746 10.001ZM14.746 15.334H19.323V16.668H14.745V15.334H14.746ZM3 7.626V18.293H13.465V7.626H3ZM8.233 13.83L7.593 14.808H8.233V16H5.016L7.35 12.49L5.282 9.334H7.01L8.234 11.17L9.457 9.334H11.184L9.112 12.49L11.449 16H9.656L8.233 13.83Z" fill="#003879"/>
</svg>
