<svg width="14" height="14" viewBox="0 0 14 14" fill="none" xmlns="http://www.w3.org/2000/svg">
<path fill-rule="evenodd" clip-rule="evenodd" d="M0 2C0 0.89543 0.895431 0 2 0C0.9 0 0 0.9 0 2ZM14 2C14 0.9 13.1 0 12 0C13.1046 0 14 0.895431 14 2ZM2 14C0.89543 14 0 13.1046 0 12C0 13.1 0.9 14 2 14ZM14 12C14 13.1046 13.1046 14 12 14C13.1 14 14 13.1 14 12ZM6.7 9.7L10.7 5.7C11.1 5.3 11.1 4.7 10.7 4.3C10.3 3.9 9.7 3.9 9.3 4.3L6 7.6L4.7 6.3C4.3 5.9 3.7 5.9 3.3 6.3C2.9 6.7 2.9 7.3 3.3 7.7L5.3 9.7C5.5 9.9 5.7 10 6 10C6.3 10 6.5 9.9 6.7 9.7Z" fill="white"/>
</svg>
