<svg width="32" height="32" viewBox="0 0 32 32" fill="none" xmlns="http://www.w3.org/2000/svg">
<path d="M25.5217 22.3062H6.34323C5.26323 22.3062 4.07861 21.177 4.07861 20.1462V7.70623C4.07861 6.63854 5.22938 5.99854 6.34323 5.99854H25.5217C26.1002 5.99854 26.494 6.20777 26.6971 6.617C26.8478 6.92777 26.8478 7.28161 26.8478 7.69084V9.99853C26.8478 10.337 26.5709 10.6139 26.2325 10.6139H7.77092C7.43246 10.6139 7.15554 10.337 7.15554 9.99853C7.15554 9.66007 7.43246 9.38315 7.77092 9.38315H25.6171V7.70623C25.6171 7.537 25.6171 7.34623 25.6048 7.23238C25.5832 7.23238 25.5555 7.23238 25.5217 7.23238H6.34323C5.85092 7.23238 5.30938 7.48161 5.30938 7.7093V20.1493C5.30938 20.5062 5.94631 21.0785 6.34323 21.0785H25.5217C25.5217 21.0785 25.5309 21.0785 25.534 21.0785C25.6171 20.9247 25.6171 20.417 25.6171 20.1647C25.6171 20.1647 25.6171 13.1093 25.6171 12.7708C25.6171 12.4324 25.894 12.1555 26.2325 12.1555C26.5709 12.1555 26.8478 12.4324 26.8478 12.7708C26.8478 13.1093 26.8478 20.1493 26.8478 20.1493C26.8478 20.5524 26.8478 20.9955 26.734 21.3739C26.5525 21.9678 26.1125 22.3093 25.5217 22.3093V22.3062Z" fill="#FFFFFF"/>
<path d="M26.9324 25.9986H24.3847C24.0463 25.9986 23.7693 25.7217 23.7693 25.3832C23.7693 25.0448 24.0463 24.7678 24.3847 24.7678H26.9324C27.4463 24.7678 28.0186 24.3525 28.1539 23.8817L28.434 22.9463C28.4863 22.7678 28.4647 22.5925 28.3755 22.4725C28.2955 22.3648 28.1632 22.3094 27.997 22.3094H4.00318C3.8801 22.3094 3.71703 22.3371 3.61549 22.4694C3.53241 22.5802 3.51395 22.7402 3.56626 22.9186L3.84626 23.9186C3.97857 24.3771 4.53857 24.7678 5.0678 24.7678H20.077C20.4155 24.7678 20.6924 25.0448 20.6924 25.3832C20.6924 25.7217 20.4155 25.9986 20.077 25.9986H5.0678C3.98472 25.9986 2.95087 25.2478 2.66472 24.254L2.38472 23.254C2.2278 22.7063 2.31703 22.1494 2.63395 21.7278C2.94472 21.3155 3.44318 21.0786 4.00318 21.0786H27.997C28.5478 21.0786 29.0463 21.3186 29.357 21.734C29.6801 22.1648 29.7755 22.734 29.6124 23.294L29.3324 24.2294C29.0463 25.2202 27.9909 26.0017 26.9293 26.0017L26.9324 25.9986Z" fill="#FFFFFF"/>
<path d="M17.5593 18.9217C17.304 18.9217 17.0732 18.7586 16.984 18.5186L15.7193 15.1586L14.4547 18.5156C14.3624 18.7586 14.1286 18.9309 13.864 18.9125C13.6024 18.9063 13.3747 18.7371 13.2916 18.4879L11.7101 13.6017C11.6055 13.2786 11.784 12.9309 12.107 12.8263C12.4301 12.7217 12.7778 12.9002 12.8824 13.2232L13.9224 16.4386L15.144 13.1956C15.2332 12.9556 15.464 12.7986 15.7193 12.7986C15.9747 12.7986 16.2055 12.9586 16.2947 13.1956L17.5163 16.4386L18.5563 13.2232C18.6609 12.9002 19.0086 12.7217 19.3317 12.8263C19.6547 12.9309 19.8332 13.2786 19.7286 13.6017L18.147 18.494C18.067 18.7432 17.8363 18.9217 17.5747 18.9217H17.5593Z" fill="#FFFFFF"/>
<path d="M19.7721 15.5369H11.7721C11.4337 15.5369 11.1567 15.26 11.1567 14.9215C11.1567 14.5831 11.4337 14.3062 11.7721 14.3062H19.7721C20.1106 14.3062 20.3875 14.5831 20.3875 14.9215C20.3875 15.26 20.1106 15.5369 19.7721 15.5369Z" fill="#FFFFFF"/>
</svg>
