<svg width="32" height="32" viewBox="0 0 32 32" fill="none" xmlns="http://www.w3.org/2000/svg">
<path d="M12.3637 8.12436H11.1926V11.5529H10.5334V8.12436H9.3623V7.5105H12.3637V8.12436Z" fill="#FFFFFF"/>
<path d="M13.6423 10.4893L13.2887 11.5529H12.5786L13.9959 7.5105H14.6267L16.0439 11.5529H15.3339L14.9803 10.4893H13.6394H13.6423ZM14.7795 9.87541L14.3127 8.46382L13.8459 9.87541H14.7795Z" fill="#FFFFFF"/>
<path d="M18.6518 9.50493L19.9135 11.553H19.1412L18.2813 10.1188L17.41 11.553H16.6377L17.8994 9.49928L16.6773 7.51343H17.4439L18.2756 8.88542L19.1101 7.51343H19.8767L18.6547 9.50493H18.6518Z" fill="#FFFFFF"/>
<path d="M20.8218 25.4678C20.7794 25.4678 20.7341 25.4565 20.6945 25.4367C20.5559 25.366 20.4993 25.1963 20.5701 25.0577L22.3126 21.6291C22.3834 21.4905 22.5531 21.4339 22.6917 21.5046C22.8303 21.5754 22.8869 21.7451 22.8162 21.8837L21.0736 25.3123C21.0227 25.4113 20.9237 25.4678 20.8218 25.4678Z" fill="#FFFFFF"/>
<path d="M23.0368 25.4682C22.5107 25.4682 22.0835 24.9958 22.0835 24.4131C22.0835 23.8303 22.5107 23.3579 23.0368 23.3579C23.563 23.3579 23.9901 23.8303 23.9901 24.4131C23.9901 24.9958 23.563 25.4682 23.0368 25.4682ZM23.0368 23.9265C22.8218 23.9265 22.6493 24.1443 22.6493 24.4159C22.6493 24.6875 22.8247 24.9053 23.0368 24.9053C23.249 24.9053 23.4244 24.6846 23.4244 24.4159C23.4244 24.1472 23.249 23.9265 23.0368 23.9265Z" fill="#FFFFFF"/>
<path d="M20.3493 23.5842C19.8232 23.5842 19.396 23.1118 19.396 22.529C19.396 21.9463 19.8232 21.4739 20.3493 21.4739C20.8755 21.4739 21.3026 21.9463 21.3026 22.529C21.3026 23.1118 20.8755 23.5842 20.3493 23.5842ZM20.3493 22.0396C20.1343 22.0396 19.9618 22.2603 19.9618 22.529C19.9618 22.7978 20.1372 23.0184 20.3493 23.0184C20.5615 23.0184 20.7369 22.7978 20.7369 22.529C20.7369 22.2603 20.5615 22.0396 20.3493 22.0396Z" fill="#FFFFFF"/>
<path d="M21.6931 28.0001C19.1981 28.0001 17.167 25.9689 17.167 23.4739C17.167 20.9789 19.1981 18.9478 21.6931 18.9478C24.1882 18.9478 26.2193 20.9789 26.2193 23.4739C26.2193 23.7483 26.1938 24.0227 26.1457 24.2914C26.0892 24.5998 25.7978 24.8035 25.4866 24.7469C25.1783 24.6903 24.9746 24.3961 25.0312 24.0878C25.068 23.8869 25.0878 23.6804 25.0878 23.4739C25.0878 21.6012 23.5658 20.0793 21.6931 20.0793C19.8204 20.0793 18.2985 21.6012 18.2985 23.4739C18.2985 25.3466 19.8204 26.8685 21.6931 26.8685C22.307 26.8685 22.9095 26.7016 23.4357 26.3876C23.7045 26.2264 24.0524 26.3141 24.2108 26.5828C24.3721 26.8515 24.2844 27.1995 24.0156 27.3579C23.3169 27.7766 22.5107 28.0001 21.6931 28.0001Z" fill="#FFFFFF"/>
<path d="M17.9448 25.4992H7.83167C6.73974 25.4992 5.78076 24.5516 5.78076 23.4709V5.9321C5.78076 4.86846 6.70014 4 7.83167 4H21.4101C22.4992 4 23.3196 4.83168 23.3196 5.9321V16.4469C23.3196 16.7581 23.065 17.0127 22.7538 17.0127C22.4427 17.0127 22.1881 16.7581 22.1881 16.4469V5.9321C22.1881 5.45968 21.8684 5.13154 21.4101 5.13154H7.83167C7.38755 5.13154 6.9123 5.45403 6.9123 5.9321V23.4709C6.9123 23.932 7.35926 24.3677 7.83167 24.3677H17.9448C18.256 24.3677 18.5106 24.6223 18.5106 24.9334C18.5106 25.2446 18.256 25.4992 17.9448 25.4992Z" fill="#FFFFFF"/>
<path d="M19.9249 16.447H9.74106C9.42989 16.447 9.17529 16.1924 9.17529 15.8812C9.17529 15.57 9.42989 15.3154 9.74106 15.3154H19.9249C20.2361 15.3154 20.4907 15.57 20.4907 15.8812C20.4907 16.1924 20.2361 16.447 19.9249 16.447Z" fill="#FFFFFF"/>
<path d="M15.1159 21.256H9.74106C9.42989 21.256 9.17529 21.0015 9.17529 20.6903C9.17529 20.3791 9.42989 20.1245 9.74106 20.1245H15.1159C15.427 20.1245 15.6816 20.3791 15.6816 20.6903C15.6816 21.0015 15.427 21.256 15.1159 21.256Z" fill="#FFFFFF"/>
</svg>
