<svg width="32" height="32" viewBox="0 0 32 32" fill="none" xmlns="http://www.w3.org/2000/svg">
<path d="M21.7674 19.1669H10.5571C10.2834 19.1669 10.0625 18.946 10.0625 18.6723C10.0625 18.3986 10.2834 18.1777 10.5571 18.1777H21.7674C22.0411 18.1777 22.262 18.3986 22.262 18.6723C22.262 18.946 22.0411 19.1669 21.7674 19.1669Z" fill="#FFFFFF"/>
<path d="M21.7674 15.9891H10.5571C10.2834 15.9891 10.0625 15.7682 10.0625 15.4946C10.0625 15.2209 10.2834 15 10.5571 15H21.7674C22.0411 15 22.262 15.2209 22.262 15.4946C22.262 15.7682 22.0411 15.9891 21.7674 15.9891Z" fill="#FFFFFF"/>
<path d="M21.7674 22.4642H10.5571C10.2834 22.4642 10.0625 22.2433 10.0625 21.9697C10.0625 21.696 10.2834 21.4751 10.5571 21.4751H21.7674C22.0411 21.4751 22.262 21.696 22.262 21.9697C22.262 22.2433 22.0411 22.4642 21.7674 22.4642Z" fill="#FFFFFF"/>
<path d="M24.736 28C23.6315 28 23.2325 27.1889 22.9951 26.7042C22.794 26.2954 22.7545 26.2756 22.6819 26.2756C22.5434 26.2756 22.4379 26.4108 22.1972 26.813C21.917 27.2845 21.4916 27.9967 20.5783 27.9967C19.665 27.9967 19.2364 27.2878 18.9528 26.8196C18.7023 26.4108 18.5967 26.2756 18.4517 26.2756C18.3066 26.2756 18.1978 26.4141 17.9439 26.8229C17.6571 27.2911 17.2185 27.9967 16.3151 27.9967C15.4117 27.9967 14.9732 27.2911 14.683 26.8229C14.4258 26.4108 14.317 26.2723 14.172 26.2723C14.0269 26.2723 13.9148 26.4108 13.6576 26.8229C13.3675 27.2878 12.9289 27.9934 12.0222 27.9934C11.1155 27.9934 10.6638 27.3439 10.3077 26.8724C10.0241 26.4998 9.8395 26.2723 9.64496 26.2723C9.50319 26.2723 9.40097 26.3943 9.1339 26.7801C8.80419 27.2647 8.30302 27.9934 7.26442 27.9934C6.90173 27.9934 6.60499 27.6967 6.60499 27.334V6.22228C6.60169 4.91331 7.99968 4 9.2526 4H17.4823C17.845 4 18.1417 4.29674 18.1417 4.65943C18.1417 5.02212 17.845 5.31886 17.4823 5.31886H9.2526C8.66571 5.31886 7.92055 5.7442 7.92055 6.22228V26.2195C7.96012 26.1668 7.99968 26.1074 8.04255 26.0448C8.35578 25.5865 8.78111 24.9633 9.64167 24.9633C10.5022 24.9633 10.9968 25.6129 11.3562 26.0844C11.6397 26.4569 11.8244 26.6844 12.0222 26.6844C12.1706 26.6844 12.2794 26.546 12.5366 26.1338C12.8267 25.6689 13.2652 24.9633 14.172 24.9633C15.0787 24.9633 15.5139 25.6689 15.8041 26.1371C16.0612 26.5492 16.17 26.6877 16.3184 26.6877C16.4668 26.6877 16.5723 26.5493 16.8262 26.1404C17.1163 25.6722 17.5515 24.9666 18.455 24.9666C19.3584 24.9666 19.7936 25.6755 20.0805 26.1437C20.331 26.5525 20.4366 26.6877 20.5816 26.6877C20.7267 26.6877 20.8256 26.5525 21.0663 26.1503C21.3466 25.6788 21.7719 24.9666 22.6852 24.9666C23.4765 24.9666 23.8524 25.5008 24.0766 25.9294V6.22228C24.0766 5.31886 23.8293 5.31886 23.5656 5.31886H22.0983C21.7356 5.31886 21.4389 5.02212 21.4389 4.65943C21.4389 4.29674 21.7356 4 22.0983 4H23.5656C24.2481 4 25.3955 4.29015 25.3955 6.22228V27.3406C25.3955 27.7033 25.0987 28 24.736 28Z" fill="#FFFFFF"/>
</svg>
