<svg width="33" height="32" viewBox="0 0 33 32" fill="none" xmlns="http://www.w3.org/2000/svg">
<path d="M13.9527 28.0004C13.7867 28.0004 13.6177 27.9678 13.4605 27.8996L9.96458 26.42C9.65324 26.2895 9.41306 26.0464 9.28852 25.7351C9.16399 25.4237 9.16695 25.0827 9.29742 24.7714L10.0713 22.9715C9.82522 22.7403 9.59394 22.4941 9.39527 22.2747L7.57466 23.0101C7.25739 23.1376 6.89268 23.1198 6.56947 22.9626C6.27296 22.8173 6.03278 22.5623 5.91121 22.2599L4.52648 18.8351C4.40491 18.5357 4.40194 18.1858 4.51462 17.8715C4.63619 17.5334 4.88823 17.2666 5.2055 17.1391L7.02611 16.4037C7.01721 16.1013 7.01425 15.7692 7.02611 15.4341L5.22922 14.6898C4.91491 14.5564 4.67474 14.3103 4.54723 13.999C4.41973 13.6847 4.4227 13.3407 4.55316 13.0294L6.03574 9.53343C6.30854 8.89296 7.04686 8.59644 7.68734 8.86627L9.48719 9.64018C9.71847 9.39407 9.96755 9.16279 10.184 8.96412L9.44864 7.14352C9.33004 6.847 9.33597 6.51194 9.46643 6.20356C9.6058 5.87443 9.87266 5.60756 10.1988 5.4771L13.6147 4.09533C14.2789 3.82847 15.0558 4.13981 15.3108 4.77139L16.0461 6.592C16.3486 6.5831 16.6807 6.58014 17.0157 6.592L17.76 4.79511C18.0357 4.1487 18.777 3.84922 19.4175 4.11905L22.9134 5.60163C23.5539 5.87443 23.8504 6.61275 23.5806 7.25323L22.8067 9.05308C23.0528 9.28436 23.2841 9.53047 23.4827 9.74989L25.3033 9.01453C25.6177 8.88703 25.9853 8.90482 26.3085 9.06197C26.6051 9.20727 26.8452 9.46227 26.9668 9.76472L28.3486 13.1835C28.6154 13.8477 28.3071 14.6246 27.6725 14.8796L25.8519 15.615C25.8578 15.9085 25.8638 16.2466 25.8489 16.5846L27.6458 17.3288C28.2922 17.6046 28.5947 18.3459 28.3219 18.9864L26.8393 22.4823C26.5665 23.1228 25.8282 23.4193 25.1877 23.1494L23.3879 22.3755C23.1566 22.6216 22.9105 22.8529 22.691 23.0516L23.4264 24.8722C23.6814 25.5067 23.3404 26.2688 22.6762 26.5386L19.2574 27.9204C18.9549 28.042 18.608 27.8967 18.4864 27.5942C18.3649 27.2918 18.5102 26.9448 18.8126 26.8233L22.2314 25.4415C22.2878 25.4178 22.3293 25.3437 22.3263 25.317L21.4368 23.1168C21.3449 22.8885 21.4042 22.6246 21.588 22.4556L21.7066 22.3459C22.0417 22.0405 22.4598 21.6609 22.777 21.2844C22.946 21.0827 23.2248 21.0175 23.4649 21.1213L25.6562 22.0612C25.6947 22.0761 25.7333 22.0612 25.7481 22.0227L27.2307 18.5268C27.2455 18.4882 27.2277 18.4437 27.1862 18.4259L24.9979 17.5186C24.7548 17.4178 24.6065 17.1687 24.6362 16.9078C24.6896 16.4185 24.6718 15.8581 24.6599 15.4074L24.654 15.2384C24.648 14.9923 24.7963 14.764 25.0246 14.6721L27.2277 13.7825C27.2455 13.7677 27.2722 13.6847 27.2485 13.6283L25.8667 10.2095C25.843 10.1532 25.7718 10.1116 25.7422 10.1176L23.542 11.0071C23.3108 11.099 23.0498 11.0397 22.8808 10.8559L22.7741 10.7403C22.4687 10.4052 22.0891 9.9871 21.7096 9.66687C21.5079 9.49785 21.4427 9.21913 21.5465 8.97895L22.4864 6.7877C22.5013 6.75211 22.4864 6.7106 22.4479 6.69578L18.952 5.2132C18.9134 5.19837 18.869 5.2132 18.8512 5.25471L17.9438 7.443C17.843 7.68614 17.5939 7.83143 17.333 7.80475C16.8497 7.75434 16.2922 7.76916 15.8445 7.78399L15.6636 7.78992C15.4264 7.79882 15.1922 7.64759 15.0973 7.41928L14.2077 5.21616C14.1929 5.19837 14.1128 5.17168 14.0535 5.19541L10.6347 6.57717C10.5784 6.60089 10.5369 6.67502 10.5398 6.70171L11.4294 8.90186C11.5213 9.13017 11.462 9.39407 11.2811 9.56012L11.1595 9.6728C10.8245 9.97821 10.4094 10.3548 10.095 10.7343C9.92603 10.936 9.64731 11.0012 9.40713 10.8974L7.21884 9.95745C7.20105 9.95152 7.18326 9.94856 7.16547 9.95745C7.14768 9.96338 7.13582 9.97821 7.12692 9.99896L5.64434 13.4949C5.63545 13.5156 5.63545 13.5334 5.64434 13.5512C5.65027 13.566 5.66213 13.5838 5.68882 13.5957L7.87711 14.503C8.12025 14.6039 8.26851 14.8529 8.23886 15.1139C8.18845 15.5972 8.20328 16.1517 8.2181 16.5994L8.22403 16.7832C8.22996 17.0294 8.0817 17.2547 7.85339 17.3496L5.65027 18.2391C5.63248 18.254 5.6058 18.337 5.62952 18.3904L7.01128 21.8092C7.035 21.8655 7.10617 21.907 7.13582 21.9011L9.333 21.0116C9.56132 20.9196 9.82522 20.9789 9.99423 21.1598L10.1039 21.2784C10.4094 21.6135 10.7889 22.0316 11.1684 22.3489C11.3701 22.5179 11.4353 22.7966 11.3315 23.0368L10.3916 25.2251C10.3856 25.2428 10.3827 25.2606 10.3916 25.2784C10.3975 25.2962 10.4123 25.3081 10.4301 25.317L13.926 26.7996C13.9468 26.8085 13.9646 26.8085 13.9853 26.7996C14.0002 26.7936 14.018 26.7818 14.0298 26.7551L14.9372 24.5668C15.038 24.3236 15.287 24.1754 15.548 24.205C16.0402 24.2584 16.6036 24.2406 17.0572 24.2258L17.2174 24.2199C17.5406 24.205 17.8163 24.4689 17.8252 24.7951C17.8341 25.1213 17.5761 25.3941 17.25 25.403L17.0928 25.4089C16.7489 25.4208 16.3071 25.4326 15.8682 25.4148L15.124 27.2117C14.9905 27.529 14.7444 27.7692 14.4301 27.8967C14.2789 27.9589 14.1188 27.9886 13.9586 27.9886L13.9527 28.0004Z" fill="#FFFFFF"/>
<path d="M16.4418 19.9945C14.3069 19.9945 12.5693 18.2569 12.5693 16.122C12.5693 13.9871 14.3069 12.2524 16.4418 12.2524C18.5767 12.2524 20.3143 13.99 20.3143 16.122C20.3143 18.2539 18.5767 19.9945 16.4418 19.9945ZM16.4418 13.4385C14.9622 13.4385 13.7554 14.6424 13.7554 16.122C13.7554 17.6016 14.9593 18.8084 16.4418 18.8084C17.9244 18.8084 19.1283 17.6046 19.1283 16.122C19.1283 14.6394 17.9244 13.4385 16.4418 13.4385Z" fill="#FFFFFF"/>
</svg>
