<svg width="32" height="32" viewBox="0 0 32 32" fill="none" xmlns="http://www.w3.org/2000/svg">
<path d="M25.5173 27.7532H24.5752C24.2946 27.7532 24.0203 27.5887 23.9364 27.3177C23.7945 26.8724 24.1236 26.4627 24.5494 26.4627H25.5173C26.0432 26.4627 26.4852 26.0078 26.4852 25.4658V21.7556C26.4852 18.481 23.4461 15.8161 19.7101 15.8161H17.813C17.5679 15.8161 17.3259 15.6935 17.2162 15.4741C17.0258 15.0999 17.2194 14.674 17.5872 14.5547C19.2939 13.9998 20.5328 12.1705 20.5328 10.2057C20.5328 7.62793 18.4389 5.5341 15.8676 5.5341C13.2963 5.5341 11.2025 7.63115 11.2025 10.2089C11.2025 12.164 12.4317 13.9836 14.1255 14.545C14.319 14.6095 14.4932 14.745 14.5545 14.9386C14.7029 15.4064 14.3642 15.8097 13.9448 15.8097H12.2897C8.55374 15.8097 5.51462 18.4971 5.51462 21.804V25.4594C5.51462 25.9981 5.95661 26.4563 6.48249 26.4563C6.48249 26.4563 9.65388 26.4563 9.98296 26.4563C10.312 26.4563 10.6701 26.6834 10.6701 27.0079C10.6701 27.3772 10.4185 27.7468 10.0314 27.7468H6.48249C5.23716 27.7468 4.22412 26.7208 4.22412 25.4594V21.804C4.22412 17.9616 7.53102 14.8063 11.7122 14.5385C10.5959 13.4545 9.91198 11.8866 9.91198 10.2089C9.90876 6.92461 12.5801 4.24683 15.8644 4.24683C19.1487 4.24683 21.82 6.92138 21.82 10.2089C21.82 11.8833 21.1393 13.4481 20.0327 14.5321C24.3301 14.6837 27.7757 17.868 27.7757 21.7556V25.4658C27.7757 26.7273 26.7626 27.7532 25.5173 27.7532Z" fill="#FFFFFF"/>
<path d="M17.8216 25.9451C17.5631 25.9451 17.3299 25.8146 17.2386 25.5788L16.0017 22.3431L14.7648 25.5989C14.6735 25.8447 14.4352 25.9952 14.1716 26.0002C13.908 25.9952 13.6748 25.8247 13.5937 25.5788L12.0323 20.8029C11.9259 20.4818 12.1033 20.1357 12.4328 20.0303C12.7573 19.925 13.1071 20.1056 13.2135 20.4267L14.2274 23.532L15.4187 20.3966C15.51 20.1558 15.7432 20.0002 16.0017 20.0002C16.2602 20.0002 16.4934 20.1608 16.5847 20.3966L17.776 23.532L18.7899 20.4267C18.8963 20.1056 19.2461 19.925 19.5706 20.0303C19.895 20.1357 20.0775 20.4818 19.9711 20.8029L18.4097 25.5487C18.3286 25.7996 18.0954 25.9451 17.8318 25.9451H17.8166H17.8216Z" fill="#FFFFFF"/>
<path d="M20.3218 23.0002H11.6811C11.3023 23.0002 11.0015 22.7748 11.0015 22.5002C11.0015 22.2257 11.3079 22.0002 11.6811 22.0002H20.3218C20.7006 22.0002 21.0015 22.2257 21.0015 22.5002C21.0015 22.7748 20.6951 23.0002 20.3218 23.0002Z" fill="#FFFFFF"/>
</svg>
