<svg width="32" height="32" viewBox="0 0 32 32" fill="none" xmlns="http://www.w3.org/2000/svg">
<path d="M18.9099 25.9908C18.5934 25.9908 18.2917 25.8311 18.0787 25.553L14.1356 21.0774C14.1356 21.0774 14.1208 21.0597 14.1148 21.0508C13.8841 20.7402 13.8309 20.3823 13.9788 20.0924C14.1178 19.8143 14.4166 19.6487 14.7775 19.6487H15.8305V16.0073C15.8305 15.3151 16.5286 14.6111 17.212 14.6111H20.5812C21.2912 14.6111 21.6757 15.3299 21.6757 16.0073V19.6487H23.0157C23.3766 19.6487 23.6754 19.8143 23.8144 20.0924C23.9593 20.3823 23.9091 20.7402 23.6783 21.0508C23.6724 21.0567 23.6665 21.0656 23.6635 21.0715L22.4123 22.5387C22.2673 22.7074 22.0129 22.7281 21.8443 22.5831C21.6757 22.4382 21.655 22.1838 21.7999 22.0152L23.0423 20.5598C23.0719 20.5184 23.0867 20.4858 23.0897 20.4651C23.0749 20.4622 23.0512 20.4563 23.0187 20.4563H21.2764C21.0545 20.4563 20.8741 20.2758 20.8741 20.054V16.0103C20.8741 15.7322 20.7498 15.4186 20.5871 15.4186H17.2179C16.9812 15.4186 16.641 15.7677 16.641 16.0103V20.054C16.641 20.2758 16.4606 20.4563 16.2388 20.4563H14.7834C14.7508 20.4563 14.7272 20.4592 14.7124 20.4651C14.7183 20.4858 14.7301 20.5184 14.7597 20.5598L18.6999 25.0324C18.6999 25.0324 18.7147 25.0502 18.7206 25.059C18.7797 25.1389 18.8537 25.1862 18.9188 25.1862C18.9898 25.1862 19.0489 25.13 19.0844 25.0797C19.0903 25.0709 19.0992 25.062 19.1081 25.0531L20.0488 23.9971C20.1967 23.8314 20.4511 23.8166 20.6167 23.9645C20.7824 24.1124 20.7972 24.3668 20.6492 24.5325L19.7175 25.5767C19.5133 25.84 19.2235 25.9908 18.9188 25.9908H18.9099Z" fill="#FFFFFF"/>
<path d="M9.02878 13.1084H4.59166C4.3491 13.1084 4.1302 12.9605 4.04145 12.7357C3.95271 12.5108 4.00892 12.2535 4.1864 12.0878L10.1381 6.48819C10.3096 6.32846 10.5611 6.28409 10.777 6.37579C10.9929 6.47044 11.1349 6.68343 11.1349 6.92007V11.3572C11.1349 12.4221 10.3067 13.1084 9.02878 13.1084ZM6.08549 11.9251H9.02878C9.44883 11.9251 9.9517 11.8275 9.9517 11.3572V8.28671L6.08253 11.9251H6.08549Z" fill="#FFFFFF"/>
<path d="M25.8909 24.3491H24.1516C23.8262 24.3491 23.56 24.0829 23.56 23.7575C23.56 23.4321 23.8262 23.1659 24.1516 23.1659H25.8909C26.311 23.1659 26.8138 23.0683 26.8138 22.5979V8.39916C26.8138 7.846 26.3139 7.19227 25.8909 7.19227H10.7633L5.21985 13.07V22.5979C5.21985 22.7547 5.21985 23.1659 6.07178 23.1659H13.5025C13.8279 23.1659 14.0941 23.4321 14.0941 23.7575C14.0941 24.0829 13.8279 24.3491 13.5025 24.3491H6.07178C4.8353 24.3491 4.03662 23.6599 4.03662 22.5979V12.8363C4.03662 12.6854 4.09282 12.5405 4.19636 12.431L10.08 6.19539C10.1924 6.07707 10.3462 6.00903 10.5119 6.00903H25.8939C27.0801 6.00903 28 7.29284 28 8.39916V22.5979C28 23.6629 27.1718 24.3491 25.8939 24.3491H25.8909Z" fill="#FFFFFF"/>
<path d="M22.6717 12.5167H14.6849C14.3595 12.5167 14.0933 12.2505 14.0933 11.9251C14.0933 11.5997 14.3595 11.3335 14.6849 11.3335H22.6717C22.9971 11.3335 23.2633 11.5997 23.2633 11.9251C23.2633 12.2505 22.9971 12.5167 22.6717 12.5167Z" fill="#FFFFFF"/>
</svg>
