<svg width="32" height="32" viewBox="0 0 32 32" fill="none" xmlns="http://www.w3.org/2000/svg">
<path d="M13.7776 16.6945C13.7776 17.3636 13.2357 17.9056 12.5665 17.9056C11.8974 17.9056 11.3555 17.3636 11.3555 16.6945C11.3555 16.0254 11.8974 15.4834 12.5665 15.4834C13.2357 15.4834 13.7776 16.0254 13.7776 16.6945Z" fill="white"/>
<path d="M17.7288 16.6945C17.7288 17.3636 17.1868 17.9056 16.5177 17.9056C15.8486 17.9056 15.3066 17.3636 15.3066 16.6945C15.3066 16.0254 15.8486 15.4834 16.5177 15.4834C17.1868 15.4834 17.7288 16.0254 17.7288 16.6945Z" fill="white"/>
<path d="M21.678 16.6945C21.678 17.3636 21.136 17.9056 20.4669 17.9056C19.7978 17.9056 19.2559 17.3636 19.2559 16.6945C19.2559 16.0254 19.7978 15.4834 20.4669 15.4834C21.136 15.4834 21.678 16.0254 21.678 16.6945Z" fill="white"/>
<circle cx="16" cy="16" r="9.4" stroke="white" stroke-width="1.2"/>
</svg>
