<svg width="32" height="32" viewBox="0 0 32 32" fill="none" xmlns="http://www.w3.org/2000/svg">
<g clip-path="url(#clip0_2026_4653)">
<path d="M15.7435 26.4274L15.0085 26.9313L4.29245 22.2294V9.23659L15.1385 14.4449C15.2257 14.4867 15.3203 14.5081 15.4148 14.5081C15.5093 14.5081 15.5989 14.4884 15.6846 14.4481L26.8836 9.22346V15.369C26.8836 15.7318 27.1728 16.0256 27.5298 16.0256C27.8869 16.0256 28.1761 15.7318 28.1761 15.369V8.37565C28.1761 8.34611 28.1736 8.31738 28.1696 8.28866C28.1736 8.25911 28.1761 8.22874 28.1761 8.19756C28.1761 7.94067 28.0274 7.70759 27.7964 7.60089L15.7613 2.05858C15.5909 1.97979 15.3946 1.98061 15.2241 2.06022L3.37562 7.60336C3.14782 7.71005 3.00162 7.94149 3 8.19674C3 8.22792 3.00162 8.25993 3.00646 8.2903C3.00242 8.3182 3 8.34693 3 8.37647V22.6619C3 22.9237 3.15348 23.1609 3.39016 23.2643L14.821 28.2789C14.9034 28.315 14.9907 28.3331 15.0771 28.3331C15.2039 28.3331 15.3299 28.2953 15.439 28.2206L16.4665 27.5156C16.7621 27.3129 16.8405 26.905 16.641 26.6038C16.4415 26.3034 16.0392 26.2238 15.7435 26.4265V26.4274ZM15.418 13.1276L10.9154 10.965L21.2663 6.03661L25.9724 8.20412L15.4188 13.1276H15.418ZM15.4963 3.37912L19.7178 5.3234L9.43154 10.2214C9.42104 10.2264 9.41135 10.2321 9.40084 10.2379L5.17454 8.20823L15.4963 3.37912Z" fill="#FFFFFF"/>
<path d="M22.3907 15.5693C18.7469 15.5693 15.7815 18.5814 15.7815 22.2845C15.7815 25.9875 18.746 28.9996 22.3907 28.9996C26.0354 28.9996 29 25.9875 29 22.2845C29 18.5814 26.0354 15.5693 22.3907 15.5693ZM22.3907 27.6864C19.4593 27.6864 17.0739 25.2628 17.0739 22.2845C17.0739 19.3061 19.4593 16.8825 22.3907 16.8825C25.3222 16.8825 27.7076 19.3052 27.7076 22.2845C27.7076 25.2637 25.3222 27.6864 22.3907 27.6864Z" fill="#FFFFFF"/>
<path d="M24.4032 20.1806L21.4645 23.0253L20.0961 21.676C19.8401 21.4232 19.4305 21.4298 19.1825 21.6899C18.9337 21.9501 18.9402 22.3654 19.1963 22.6182L21.0105 24.4073C21.1357 24.5313 21.2981 24.5928 21.4605 24.5928C21.6228 24.5928 21.7812 24.5321 21.9064 24.4114L25.295 21.1319C25.5535 20.8815 25.5632 20.4663 25.3168 20.2036C25.0704 19.941 24.6617 19.9311 24.4032 20.1815V20.1806Z" fill="#FFFFFF"/>
</g>
<defs>
<clipPath id="clip0_2026_4653">
<rect width="26" height="27" fill="white" transform="translate(3 2)"/>
</clipPath>
</defs>
</svg>
