<svg width="32" height="32" viewBox="0 0 32 32" fill="none" xmlns="http://www.w3.org/2000/svg">
<path d="M25.837 26.9029H22.5316C22.1975 26.9029 21.9241 26.6295 21.9241 26.2953C21.9241 25.9611 22.1975 25.6877 22.5316 25.6877H25.837C26.3413 25.6877 26.7848 25.2867 26.7848 24.828V11.8072C26.7848 11.2908 26.2197 11.1054 25.837 11.1054H6.01114C5.77114 11.1054 5.21519 11.1753 5.21519 11.8072V24.828C5.21519 25.3262 5.54937 25.6877 6.01114 25.6877H19.6709C20.0051 25.6877 20.2785 25.9611 20.2785 26.2953C20.2785 26.6295 20.0051 26.9029 19.6709 26.9029H6.01114C4.88405 26.9029 4 25.9915 4 24.828V11.8072C4 10.6771 4.82633 9.89026 6.01114 9.89026H25.837C27.0704 9.89026 28 10.7135 28 11.8072V24.828C28 25.952 27.0096 26.9029 25.837 26.9029Z" fill="#FFFFFF"/>
<path d="M21.3166 10.2616C20.9824 10.2616 20.709 9.98819 20.709 9.65401V8.59679C20.709 7.37857 19.509 6.31224 18.1449 6.31224H14.0011C12.6736 6.31224 11.5951 7.33907 11.5951 8.59679V9.65401C11.5951 9.98819 11.3217 10.2616 10.9875 10.2616C10.6533 10.2616 10.3799 9.98819 10.3799 9.65401V8.59679C10.3799 6.66768 12.0052 5.09705 14.0011 5.09705H18.1449C20.1956 5.09705 21.9242 6.7011 21.9242 8.59679V9.65401C21.9242 9.98819 21.6508 10.2616 21.3166 10.2616Z" fill="#FFFFFF"/>
<path d="M21.6174 18.9143C21.3318 18.9143 21.0796 18.7138 21.0219 18.4221C20.9581 18.094 21.1738 17.775 21.5019 17.7082C23.4128 17.3345 25.2903 16.7695 27.0827 16.0252C27.3926 15.8976 27.748 16.0434 27.8756 16.3533C28.0032 16.6631 27.8574 17.0186 27.5475 17.1462C25.6791 17.9209 23.7227 18.5102 21.7328 18.8991C21.6933 18.9082 21.6538 18.9112 21.6174 18.9112V18.9143Z" fill="#FFFFFF"/>
<path d="M10.1518 18.896C10.1123 18.896 10.0728 18.893 10.0333 18.8839C8.23486 18.5284 6.4546 18.0059 4.74119 17.3284C4.42828 17.2039 4.27638 16.8515 4.40093 16.5416C4.52549 16.2287 4.8779 16.0768 5.19081 16.2013C6.83435 16.8515 8.54473 17.3558 10.2703 17.696C10.5984 17.7598 10.8141 18.0819 10.7473 18.41C10.6895 18.6986 10.4374 18.8991 10.1518 18.8991V18.896Z" fill="#FFFFFF"/>
<path d="M17.5706 21.3685C17.3184 21.3685 17.0906 21.2804 17.0025 21.0434L15.7995 17.8869L14.5964 21.095C14.5053 21.335 14.2714 21.5143 14.0131 21.496C13.7549 21.49 13.5301 21.3259 13.4481 21.0798L11.926 16.3831C11.8227 16.0642 11.999 15.7209 12.3179 15.6176C12.6369 15.5143 12.9802 15.6905 13.0835 16.0095L14.0709 19.0596L15.2283 15.9852C15.3164 15.7482 15.5443 15.5933 15.7964 15.5933C16.0486 15.5933 16.2764 15.7512 16.3645 15.9852L17.522 19.0596L18.5093 16.0125C18.6126 15.6935 18.9559 15.5173 19.2749 15.6206C19.5939 15.7239 19.7701 16.0672 19.6668 16.3862L18.1448 21.0191C18.0658 21.2652 17.8379 21.3715 17.5797 21.3715H17.5645L17.5706 21.3685Z" fill="#FFFFFF"/>
<path d="M19.7973 18.3305H11.8986C11.5644 18.3305 11.291 18.0571 11.291 17.723C11.291 17.3888 11.5644 17.1154 11.8986 17.1154H19.7973C20.1315 17.1154 20.4049 17.3888 20.4049 17.723C20.4049 18.0571 20.1315 18.3305 19.7973 18.3305Z" fill="#FFFFFF"/>
</svg>
