<svg width="32" height="32" viewBox="0 0 32 32" fill="none" xmlns="http://www.w3.org/2000/svg">
<path d="M24.6595 28H15.8379C15.4811 28 15.1892 27.7081 15.1892 27.3514C15.1892 26.9946 15.4811 26.7027 15.8379 26.7027H24.6595C24.9189 26.7027 25.2433 26.7027 25.2433 25.9503V6.35784C25.2433 6.31568 25.2368 5.2973 24.6595 5.2973H7.86596C7.35677 5.2973 6.75677 5.87135 6.75677 6.35784V25.9503C6.75677 26.3946 7.34055 26.7027 7.86596 26.7027H11.2973C11.6541 26.7027 11.946 26.9946 11.946 27.3514C11.946 27.7081 11.6541 28 11.2973 28H7.86596C6.70812 28 5.45947 27.2151 5.45947 25.9503V6.35784C5.45947 5.14811 6.62704 4 7.86596 4H24.6595C25.7687 4 26.5406 4.96973 26.5406 6.35784V25.9503C26.5406 27.2151 25.8206 28 24.6595 28Z" fill="#FFFFFF"/>
<path d="M21.3504 13.0811H10.3234C9.24987 13.0811 8.37744 12.2087 8.37744 11.1352V8.86489C8.37744 7.79138 9.24987 6.91895 10.3234 6.91895H10.972C11.3288 6.91895 11.6207 7.21084 11.6207 7.56759C11.6207 7.92435 11.3288 8.21624 10.972 8.21624H10.3234C9.96663 8.21624 9.67474 8.50813 9.67474 8.86489V11.1352C9.67474 11.4919 9.96663 11.7838 10.3234 11.7838H21.3504C21.7072 11.7838 21.9991 11.4919 21.9991 11.1352V8.86489C21.9991 8.50813 21.7072 8.21624 21.3504 8.21624H14.8639C14.5072 8.21624 14.2153 7.92435 14.2153 7.56759C14.2153 7.21084 14.5072 6.91895 14.8639 6.91895H21.3504C22.4239 6.91895 23.2964 7.79138 23.2964 8.86489V11.1352C23.2964 12.2087 22.4239 13.0811 21.3504 13.0811Z" fill="#FFFFFF"/>
<path d="M13.1553 25.149C12.9899 25.149 12.8245 25.0841 12.698 24.9576L9.86014 22.1198C9.60717 21.8668 9.60717 21.4549 9.86014 21.2019C10.1131 20.949 10.525 20.949 10.778 21.2019L13.6158 24.0398C13.8688 24.2927 13.8688 24.7046 13.6158 24.9576C13.4893 25.0841 13.3239 25.149 13.1585 25.149H13.1553Z" fill="#FFFFFF"/>
<path d="M10.3174 25.149C10.152 25.149 9.98663 25.0841 9.86014 24.9576C9.60717 24.7046 9.60717 24.2927 9.86014 24.0398L12.698 21.2019C12.951 20.949 13.3628 20.949 13.6158 21.2019C13.8688 21.4549 13.8688 21.8668 13.6158 22.1198L10.778 24.9576C10.6515 25.0841 10.4861 25.149 10.3207 25.149H10.3174Z" fill="#FFFFFF"/>
<path d="M13.7443 17.2778H9.72922C9.37246 17.2778 9.08057 16.9859 9.08057 16.6291C9.08057 16.2724 9.37246 15.9805 9.72922 15.9805H13.7443C14.1011 15.9805 14.393 16.2724 14.393 16.6291C14.393 16.9859 14.1011 17.2778 13.7443 17.2778Z" fill="#FFFFFF"/>
<path d="M11.6198 19.2434C11.2631 19.2434 10.9712 18.9515 10.9712 18.5947V14.7028C10.9712 14.3461 11.2631 14.0542 11.6198 14.0542C11.9766 14.0542 12.2685 14.3461 12.2685 14.7028V18.5947C12.2685 18.9515 11.9766 19.2434 11.6198 19.2434Z" fill="#FFFFFF"/>
<path d="M22.3537 17.2778H18.3386C17.9818 17.2778 17.6899 16.9859 17.6899 16.6291C17.6899 16.2724 17.9818 15.9805 18.3386 15.9805H22.3537C22.7105 15.9805 23.0024 16.2724 23.0024 16.6291C23.0024 16.9859 22.7105 17.2778 22.3537 17.2778Z" fill="#FFFFFF"/>
<path d="M22.3242 22.162H18.4323C18.0756 22.162 17.7837 21.8702 17.7837 21.5134C17.7837 21.1566 18.0756 20.8647 18.4323 20.8647H22.3242C22.681 20.8647 22.9729 21.1566 22.9729 21.5134C22.9729 21.8702 22.681 22.162 22.3242 22.162Z" fill="#FFFFFF"/>
<path d="M22.3242 25.081H18.4323C18.0756 25.081 17.7837 24.7891 17.7837 24.4323C17.7837 24.0756 18.0756 23.7837 18.4323 23.7837H22.3242C22.681 23.7837 22.9729 24.0756 22.9729 24.4323C22.9729 24.7891 22.681 25.081 22.3242 25.081Z" fill="#FFFFFF"/>
</svg>
