<svg width="32" height="32" viewBox="0 0 32 32" fill="none" xmlns="http://www.w3.org/2000/svg">
<path d="M18.8702 24.047C16.7902 24.047 15.0991 22.3559 15.0991 20.2759C15.0991 18.1959 16.7902 16.5049 18.8702 16.5049C20.9502 16.5049 22.6412 18.1959 22.6412 20.2759C22.6412 22.3559 20.9502 24.047 18.8702 24.047ZM18.8702 17.6083C17.3998 17.6083 16.2026 18.8056 16.2026 20.2759C16.2026 21.7463 17.3998 22.9435 18.8702 22.9435C20.3405 22.9435 21.5377 21.7463 21.5377 20.2759C21.5377 18.8056 20.3405 17.6083 18.8702 17.6083Z" fill="#FFFFFF"/>
<path d="M21.6233 28H21.604C21.3971 28 21.2095 27.829 21.0882 27.6552L18.6826 24.1876C18.5088 23.9366 18.5695 23.5779 18.8178 23.4041C19.0688 23.2304 19.4109 23.2828 19.5875 23.531L21.4661 26.2097L21.5875 25.4262C21.6123 25.1641 21.7475 24.9297 21.9599 24.7807C22.1778 24.629 22.4482 24.5821 22.7047 24.6538L23.1544 24.7614L21.3971 22.2538C21.2233 22.0028 21.284 21.6607 21.5323 21.4841C21.7833 21.3104 22.1254 21.371 22.3019 21.6193L24.7075 25.0538C24.8509 25.2607 24.8785 25.4979 24.7819 25.7104C24.6826 25.931 24.4619 26.08 24.1944 26.1104C24.1309 26.1186 24.0647 26.1131 24.0013 26.0993L22.6495 25.7738L22.4233 27.2221C22.4095 27.3159 22.3709 27.4676 22.3102 27.5421C22.1944 27.6883 21.9544 27.9945 21.6233 27.9945V28Z" fill="#FFFFFF"/>
<path d="M16.1144 27.8868C16.0979 27.8868 16.0813 27.8868 16.0675 27.8868C15.8275 27.8675 15.6096 27.713 15.491 27.4703C15.4634 27.4124 15.4441 27.3517 15.4358 27.2855L15.2785 25.9034L13.8385 26.1875C13.7448 26.2068 13.6482 26.2013 13.5572 26.171C13.3779 26.1103 13.0579 25.9641 12.9503 25.6386C12.8841 25.4427 12.9172 25.2303 13.0385 25.0565L15.4413 21.622C15.6151 21.3737 15.9599 21.313 16.211 21.4868C16.4592 21.6606 16.5199 22.0055 16.3461 22.2565L14.4675 24.9379L15.2427 24.7834C15.4965 24.7172 15.7613 24.7641 15.9737 24.913C16.1917 25.0648 16.3268 25.3048 16.3461 25.5696L16.3985 26.0303L18.153 23.5227C18.3268 23.2744 18.6717 23.2137 18.9227 23.3875C19.171 23.5613 19.2317 23.9061 19.0579 24.1572L16.6551 27.5917C16.5199 27.782 16.3268 27.8896 16.1117 27.8896L16.1144 27.8868Z" fill="#FFFFFF"/>
<path d="M10.8621 24.9655H8.93931C7.86897 24.9655 7 24.0993 7 23.0345V5.93103C7 4.86621 7.86897 4 8.93931 4H22.1807C23.24 4 24.1034 4.86621 24.1034 5.93103V23.0345C24.1034 23.4759 23.9379 23.9172 23.6345 24.2759C23.4386 24.5103 23.091 24.5379 22.8566 24.3421C22.6248 24.1462 22.5945 23.7986 22.7903 23.5641C22.9255 23.4041 23 23.2138 23 23.0345V5.93103C23 5.47586 22.6331 5.10345 22.1807 5.10345H8.93931C8.4869 5.10345 8.10345 5.48138 8.10345 5.93103V23.0345C8.10345 23.4841 8.4869 23.8621 8.93931 23.8621H10.8621C11.1655 23.8621 11.4138 24.1103 11.4138 24.4138C11.4138 24.7172 11.1655 24.9655 10.8621 24.9655Z" fill="#FFFFFF"/>
<path d="M19.414 24.9655H18.3105C18.0071 24.9655 17.7588 24.7172 17.7588 24.4138C17.7588 24.1103 18.0071 23.8621 18.3105 23.8621H19.414C19.7174 23.8621 19.9657 24.1103 19.9657 24.4138C19.9657 24.7172 19.7174 24.9655 19.414 24.9655Z" fill="#FFFFFF"/>
<path d="M20.2411 10.0689H10.8618C10.5583 10.0689 10.3101 9.82063 10.3101 9.51718C10.3101 9.21373 10.5583 8.96545 10.8618 8.96545H20.2411C20.5445 8.96545 20.7928 9.21373 20.7928 9.51718C20.7928 9.82063 20.5445 10.0689 20.2411 10.0689Z" fill="#FFFFFF"/>
<path d="M20.2411 13.6552H10.8618C10.5583 13.6552 10.3101 13.4069 10.3101 13.1035C10.3101 12.8 10.5583 12.5518 10.8618 12.5518H20.2411C20.5445 12.5518 20.7928 12.8 20.7928 13.1035C20.7928 13.4069 20.5445 13.6552 20.2411 13.6552Z" fill="#FFFFFF"/>
</svg>
