<svg width="32" height="32" viewBox="0 0 32 32" fill="none" xmlns="http://www.w3.org/2000/svg">
<path d="M17.3013 28H8.86953C7.81989 28 6.60254 27.1384 6.60254 26.0309V8.69016C6.60254 7.57979 7.77941 6.8916 8.86953 6.8916H11.8074C12.1254 6.8916 12.3857 7.15184 12.3857 7.46991C12.3857 7.78799 12.1254 8.04823 11.8074 8.04823H8.86953C8.36929 8.04823 7.75917 8.34606 7.75917 8.69016V26.028C7.75917 26.401 8.36061 26.8405 8.86953 26.8405H17.3013C17.6194 26.8405 17.8796 27.1008 17.8796 27.4188C17.8796 27.7369 17.6194 27.9971 17.3013 27.9971V28Z" fill="#FFFFFF"/>
<path d="M23.7318 28H21.6383C21.3202 28 21.0599 27.7398 21.0599 27.4217C21.0599 27.1037 21.3202 26.8434 21.6383 26.8434H23.7318C24.0701 26.8434 24.2407 26.5687 24.2407 26.0309V8.69016C24.2407 8.09449 24.0296 8.04823 23.7318 8.04823H20.4816C20.1636 8.04823 19.9033 7.78799 19.9033 7.46991C19.9033 7.15184 20.1636 6.8916 20.4816 6.8916H23.7318C24.7756 6.8916 25.3973 7.56534 25.3973 8.69016V26.028C25.3973 27.2251 24.7438 27.9971 23.7318 27.9971V28Z" fill="#FFFFFF"/>
<path d="M15.8025 21.0168C15.6348 21.0168 15.4757 20.9445 15.3659 20.8172L12.1533 17.1045C11.9451 16.8645 11.9712 16.4972 12.2112 16.289C12.454 16.0809 12.8184 16.1069 13.0266 16.3469L15.7504 19.4929L19.5355 13.9556C19.7148 13.6924 20.0762 13.6259 20.3393 13.8052C20.6025 13.9845 20.6719 14.3459 20.4897 14.609L16.2796 20.7652C16.1784 20.9127 16.0136 21.0052 15.8343 21.0168C15.8227 21.0168 15.8112 21.0168 15.8025 21.0168Z" fill="#FFFFFF"/>
<path d="M20.1538 10.0723H12.7225C12.1846 10.0723 11.2275 9.70217 11.2275 8.96482V6.76434C11.2275 6.01542 12.1442 5.73494 12.7225 5.73494H12.9625V5.11325C12.9625 4.37301 13.8675 4 14.3736 4H18.5027C18.8121 4 19.003 4.12723 19.1071 4.23422C19.3442 4.48 19.3355 4.79229 19.3268 5.00048C19.3268 5.03518 19.3268 5.07277 19.3268 5.11325V5.73494H20.1567C20.5702 5.73494 21.0618 5.91422 21.0618 6.76434V8.96482C21.0618 9.92771 20.495 10.0723 20.1567 10.0723H20.1538ZM12.3842 8.81446C12.4796 8.86651 12.6386 8.91566 12.7225 8.91566H19.9022V6.89157H18.7456C18.4275 6.89157 18.1673 6.63133 18.1673 6.31325V5.15663H14.3736C14.3128 5.15663 14.1914 5.19711 14.1191 5.24048V6.31325C14.1191 6.63133 13.8589 6.89157 13.5408 6.89157H12.7225C12.6213 6.89157 12.4796 6.92048 12.3842 6.95518V8.81446Z" fill="#FFFFFF"/>
</svg>
